<?xml version="1.0" encoding="utf-8"?>
<svg xmlns="http://www.w3.org/2000/svg" xmlns:xlink="http://www.w3.org/1999/xlink" style="margin: auto; background: none; display: block; shape-rendering: auto;" width="218px" height="218px" viewBox="0 0 100 100" preserveAspectRatio="xMidYMid">
<g transform="rotate(0 50 50)">
  <rect x="20.5" y="49.5" rx="16.52" ry="0.5" width="59" height="1" fill="#3b82f6">
    <animate attributeName="opacity" values="1;0" keyTimes="0;1" dur="0.1855287569573284s" begin="-0.18189093819345922s" repeatCount="indefinite"></animate>
  </rect>
</g><g transform="rotate(7.0588235294117645 50 50)">
  <rect x="20.5" y="49.5" rx="16.52" ry="0.5" width="59" height="1" fill="#3b82f6">
    <animate attributeName="opacity" values="1;0" keyTimes="0;1" dur="0.1855287569573284s" begin="-0.17825311942959002s" repeatCount="indefinite"></animate>
  </rect>
</g><g transform="rotate(14.117647058823529 50 50)">
  <rect x="20.5" y="49.5" rx="16.52" ry="0.5" width="59" height="1" fill="#3b82f6">
    <animate attributeName="opacity" values="1;0" keyTimes="0;1" dur="0.1855287569573284s" begin="-0.17461530066572084s" repeatCount="indefinite"></animate>
  </rect>
</g><g transform="rotate(21.176470588235293 50 50)">
  <rect x="20.5" y="49.5" rx="16.52" ry="0.5" width="59" height="1" fill="#3b82f6">
    <animate attributeName="opacity" values="1;0" keyTimes="0;1" dur="0.1855287569573284s" begin="-0.17097748190185166s" repeatCount="indefinite"></animate>
  </rect>
</g><g transform="rotate(28.235294117647058 50 50)">
  <rect x="20.5" y="49.5" rx="16.52" ry="0.5" width="59" height="1" fill="#3b82f6">
    <animate attributeName="opacity" values="1;0" keyTimes="0;1" dur="0.1855287569573284s" begin="-0.1673396631379825s" repeatCount="indefinite"></animate>
  </rect>
</g><g transform="rotate(35.294117647058826 50 50)">
  <rect x="20.5" y="49.5" rx="16.52" ry="0.5" width="59" height="1" fill="#3b82f6">
    <animate attributeName="opacity" values="1;0" keyTimes="0;1" dur="0.1855287569573284s" begin="-0.16370184437411328s" repeatCount="indefinite"></animate>
  </rect>
</g><g transform="rotate(42.35294117647059 50 50)">
  <rect x="20.5" y="49.5" rx="16.52" ry="0.5" width="59" height="1" fill="#3b82f6">
    <animate attributeName="opacity" values="1;0" keyTimes="0;1" dur="0.1855287569573284s" begin="-0.1600640256102441s" repeatCount="indefinite"></animate>
  </rect>
</g><g transform="rotate(49.411764705882355 50 50)">
  <rect x="20.5" y="49.5" rx="16.52" ry="0.5" width="59" height="1" fill="#3b82f6">
    <animate attributeName="opacity" values="1;0" keyTimes="0;1" dur="0.1855287569573284s" begin="-0.15642620684637493s" repeatCount="indefinite"></animate>
  </rect>
</g><g transform="rotate(56.470588235294116 50 50)">
  <rect x="20.5" y="49.5" rx="16.52" ry="0.5" width="59" height="1" fill="#3b82f6">
    <animate attributeName="opacity" values="1;0" keyTimes="0;1" dur="0.1855287569573284s" begin="-0.15278838808250575s" repeatCount="indefinite"></animate>
  </rect>
</g><g transform="rotate(63.529411764705884 50 50)">
  <rect x="20.5" y="49.5" rx="16.52" ry="0.5" width="59" height="1" fill="#3b82f6">
    <animate attributeName="opacity" values="1;0" keyTimes="0;1" dur="0.1855287569573284s" begin="-0.14915056931863654s" repeatCount="indefinite"></animate>
  </rect>
</g><g transform="rotate(70.58823529411765 50 50)">
  <rect x="20.5" y="49.5" rx="16.52" ry="0.5" width="59" height="1" fill="#3b82f6">
    <animate attributeName="opacity" values="1;0" keyTimes="0;1" dur="0.1855287569573284s" begin="-0.14551275055476737s" repeatCount="indefinite"></animate>
  </rect>
</g><g transform="rotate(77.6470588235294 50 50)">
  <rect x="20.5" y="49.5" rx="16.52" ry="0.5" width="59" height="1" fill="#3b82f6">
    <animate attributeName="opacity" values="1;0" keyTimes="0;1" dur="0.1855287569573284s" begin="-0.1418749317908982s" repeatCount="indefinite"></animate>
  </rect>
</g><g transform="rotate(84.70588235294117 50 50)">
  <rect x="20.5" y="49.5" rx="16.52" ry="0.5" width="59" height="1" fill="#3b82f6">
    <animate attributeName="opacity" values="1;0" keyTimes="0;1" dur="0.1855287569573284s" begin="-0.138237113027029s" repeatCount="indefinite"></animate>
  </rect>
</g><g transform="rotate(91.76470588235294 50 50)">
  <rect x="20.5" y="49.5" rx="16.52" ry="0.5" width="59" height="1" fill="#3b82f6">
    <animate attributeName="opacity" values="1;0" keyTimes="0;1" dur="0.1855287569573284s" begin="-0.1345992942631598s" repeatCount="indefinite"></animate>
  </rect>
</g><g transform="rotate(98.82352941176471 50 50)">
  <rect x="20.5" y="49.5" rx="16.52" ry="0.5" width="59" height="1" fill="#3b82f6">
    <animate attributeName="opacity" values="1;0" keyTimes="0;1" dur="0.1855287569573284s" begin="-0.13096147549929063s" repeatCount="indefinite"></animate>
  </rect>
</g><g transform="rotate(105.88235294117646 50 50)">
  <rect x="20.5" y="49.5" rx="16.52" ry="0.5" width="59" height="1" fill="#3b82f6">
    <animate attributeName="opacity" values="1;0" keyTimes="0;1" dur="0.1855287569573284s" begin="-0.12732365673542145s" repeatCount="indefinite"></animate>
  </rect>
</g><g transform="rotate(112.94117647058823 50 50)">
  <rect x="20.5" y="49.5" rx="16.52" ry="0.5" width="59" height="1" fill="#3b82f6">
    <animate attributeName="opacity" values="1;0" keyTimes="0;1" dur="0.1855287569573284s" begin="-0.12368583797155226s" repeatCount="indefinite"></animate>
  </rect>
</g><g transform="rotate(120 50 50)">
  <rect x="20.5" y="49.5" rx="16.52" ry="0.5" width="59" height="1" fill="#3b82f6">
    <animate attributeName="opacity" values="1;0" keyTimes="0;1" dur="0.1855287569573284s" begin="-0.12004801920768308s" repeatCount="indefinite"></animate>
  </rect>
</g><g transform="rotate(127.05882352941177 50 50)">
  <rect x="20.5" y="49.5" rx="16.52" ry="0.5" width="59" height="1" fill="#3b82f6">
    <animate attributeName="opacity" values="1;0" keyTimes="0;1" dur="0.1855287569573284s" begin="-0.1164102004438139s" repeatCount="indefinite"></animate>
  </rect>
</g><g transform="rotate(134.11764705882354 50 50)">
  <rect x="20.5" y="49.5" rx="16.52" ry="0.5" width="59" height="1" fill="#3b82f6">
    <animate attributeName="opacity" values="1;0" keyTimes="0;1" dur="0.1855287569573284s" begin="-0.11277238167994472s" repeatCount="indefinite"></animate>
  </rect>
</g><g transform="rotate(141.1764705882353 50 50)">
  <rect x="20.5" y="49.5" rx="16.52" ry="0.5" width="59" height="1" fill="#3b82f6">
    <animate attributeName="opacity" values="1;0" keyTimes="0;1" dur="0.1855287569573284s" begin="-0.10913456291607553s" repeatCount="indefinite"></animate>
  </rect>
</g><g transform="rotate(148.23529411764707 50 50)">
  <rect x="20.5" y="49.5" rx="16.52" ry="0.5" width="59" height="1" fill="#3b82f6">
    <animate attributeName="opacity" values="1;0" keyTimes="0;1" dur="0.1855287569573284s" begin="-0.10549674415220635s" repeatCount="indefinite"></animate>
  </rect>
</g><g transform="rotate(155.2941176470588 50 50)">
  <rect x="20.5" y="49.5" rx="16.52" ry="0.5" width="59" height="1" fill="#3b82f6">
    <animate attributeName="opacity" values="1;0" keyTimes="0;1" dur="0.1855287569573284s" begin="-0.10185892538833716s" repeatCount="indefinite"></animate>
  </rect>
</g><g transform="rotate(162.35294117647058 50 50)">
  <rect x="20.5" y="49.5" rx="16.52" ry="0.5" width="59" height="1" fill="#3b82f6">
    <animate attributeName="opacity" values="1;0" keyTimes="0;1" dur="0.1855287569573284s" begin="-0.09822110662446798s" repeatCount="indefinite"></animate>
  </rect>
</g><g transform="rotate(169.41176470588235 50 50)">
  <rect x="20.5" y="49.5" rx="16.52" ry="0.5" width="59" height="1" fill="#3b82f6">
    <animate attributeName="opacity" values="1;0" keyTimes="0;1" dur="0.1855287569573284s" begin="-0.09458328786059879s" repeatCount="indefinite"></animate>
  </rect>
</g><g transform="rotate(176.47058823529412 50 50)">
  <rect x="20.5" y="49.5" rx="16.52" ry="0.5" width="59" height="1" fill="#3b82f6">
    <animate attributeName="opacity" values="1;0" keyTimes="0;1" dur="0.1855287569573284s" begin="-0.09094546909672961s" repeatCount="indefinite"></animate>
  </rect>
</g><g transform="rotate(183.52941176470588 50 50)">
  <rect x="20.5" y="49.5" rx="16.52" ry="0.5" width="59" height="1" fill="#3b82f6">
    <animate attributeName="opacity" values="1;0" keyTimes="0;1" dur="0.1855287569573284s" begin="-0.08730765033286042s" repeatCount="indefinite"></animate>
  </rect>
</g><g transform="rotate(190.58823529411765 50 50)">
  <rect x="20.5" y="49.5" rx="16.52" ry="0.5" width="59" height="1" fill="#3b82f6">
    <animate attributeName="opacity" values="1;0" keyTimes="0;1" dur="0.1855287569573284s" begin="-0.08366983156899124s" repeatCount="indefinite"></animate>
  </rect>
</g><g transform="rotate(197.64705882352942 50 50)">
  <rect x="20.5" y="49.5" rx="16.52" ry="0.5" width="59" height="1" fill="#3b82f6">
    <animate attributeName="opacity" values="1;0" keyTimes="0;1" dur="0.1855287569573284s" begin="-0.08003201280512205s" repeatCount="indefinite"></animate>
  </rect>
</g><g transform="rotate(204.7058823529412 50 50)">
  <rect x="20.5" y="49.5" rx="16.52" ry="0.5" width="59" height="1" fill="#3b82f6">
    <animate attributeName="opacity" values="1;0" keyTimes="0;1" dur="0.1855287569573284s" begin="-0.07639419404125287s" repeatCount="indefinite"></animate>
  </rect>
</g><g transform="rotate(211.76470588235293 50 50)">
  <rect x="20.5" y="49.5" rx="16.52" ry="0.5" width="59" height="1" fill="#3b82f6">
    <animate attributeName="opacity" values="1;0" keyTimes="0;1" dur="0.1855287569573284s" begin="-0.07275637527738368s" repeatCount="indefinite"></animate>
  </rect>
</g><g transform="rotate(218.8235294117647 50 50)">
  <rect x="20.5" y="49.5" rx="16.52" ry="0.5" width="59" height="1" fill="#3b82f6">
    <animate attributeName="opacity" values="1;0" keyTimes="0;1" dur="0.1855287569573284s" begin="-0.0691185565135145s" repeatCount="indefinite"></animate>
  </rect>
</g><g transform="rotate(225.88235294117646 50 50)">
  <rect x="20.5" y="49.5" rx="16.52" ry="0.5" width="59" height="1" fill="#3b82f6">
    <animate attributeName="opacity" values="1;0" keyTimes="0;1" dur="0.1855287569573284s" begin="-0.06548073774964532s" repeatCount="indefinite"></animate>
  </rect>
</g><g transform="rotate(232.94117647058823 50 50)">
  <rect x="20.5" y="49.5" rx="16.52" ry="0.5" width="59" height="1" fill="#3b82f6">
    <animate attributeName="opacity" values="1;0" keyTimes="0;1" dur="0.1855287569573284s" begin="-0.06184291898577613s" repeatCount="indefinite"></animate>
  </rect>
</g><g transform="rotate(240 50 50)">
  <rect x="20.5" y="49.5" rx="16.52" ry="0.5" width="59" height="1" fill="#3b82f6">
    <animate attributeName="opacity" values="1;0" keyTimes="0;1" dur="0.1855287569573284s" begin="-0.05820510022190695s" repeatCount="indefinite"></animate>
  </rect>
</g><g transform="rotate(247.05882352941177 50 50)">
  <rect x="20.5" y="49.5" rx="16.52" ry="0.5" width="59" height="1" fill="#3b82f6">
    <animate attributeName="opacity" values="1;0" keyTimes="0;1" dur="0.1855287569573284s" begin="-0.05456728145803776s" repeatCount="indefinite"></animate>
  </rect>
</g><g transform="rotate(254.11764705882354 50 50)">
  <rect x="20.5" y="49.5" rx="16.52" ry="0.5" width="59" height="1" fill="#3b82f6">
    <animate attributeName="opacity" values="1;0" keyTimes="0;1" dur="0.1855287569573284s" begin="-0.05092946269416858s" repeatCount="indefinite"></animate>
  </rect>
</g><g transform="rotate(261.1764705882353 50 50)">
  <rect x="20.5" y="49.5" rx="16.52" ry="0.5" width="59" height="1" fill="#3b82f6">
    <animate attributeName="opacity" values="1;0" keyTimes="0;1" dur="0.1855287569573284s" begin="-0.047291643930299394s" repeatCount="indefinite"></animate>
  </rect>
</g><g transform="rotate(268.2352941176471 50 50)">
  <rect x="20.5" y="49.5" rx="16.52" ry="0.5" width="59" height="1" fill="#3b82f6">
    <animate attributeName="opacity" values="1;0" keyTimes="0;1" dur="0.1855287569573284s" begin="-0.04365382516643021s" repeatCount="indefinite"></animate>
  </rect>
</g><g transform="rotate(275.29411764705884 50 50)">
  <rect x="20.5" y="49.5" rx="16.52" ry="0.5" width="59" height="1" fill="#3b82f6">
    <animate attributeName="opacity" values="1;0" keyTimes="0;1" dur="0.1855287569573284s" begin="-0.040016006402561026s" repeatCount="indefinite"></animate>
  </rect>
</g><g transform="rotate(282.3529411764706 50 50)">
  <rect x="20.5" y="49.5" rx="16.52" ry="0.5" width="59" height="1" fill="#3b82f6">
    <animate attributeName="opacity" values="1;0" keyTimes="0;1" dur="0.1855287569573284s" begin="-0.03637818763869184s" repeatCount="indefinite"></animate>
  </rect>
</g><g transform="rotate(289.4117647058824 50 50)">
  <rect x="20.5" y="49.5" rx="16.52" ry="0.5" width="59" height="1" fill="#3b82f6">
    <animate attributeName="opacity" values="1;0" keyTimes="0;1" dur="0.1855287569573284s" begin="-0.03274036887482266s" repeatCount="indefinite"></animate>
  </rect>
</g><g transform="rotate(296.47058823529414 50 50)">
  <rect x="20.5" y="49.5" rx="16.52" ry="0.5" width="59" height="1" fill="#3b82f6">
    <animate attributeName="opacity" values="1;0" keyTimes="0;1" dur="0.1855287569573284s" begin="-0.029102550110953473s" repeatCount="indefinite"></animate>
  </rect>
</g><g transform="rotate(303.52941176470586 50 50)">
  <rect x="20.5" y="49.5" rx="16.52" ry="0.5" width="59" height="1" fill="#3b82f6">
    <animate attributeName="opacity" values="1;0" keyTimes="0;1" dur="0.1855287569573284s" begin="-0.02546473134708429s" repeatCount="indefinite"></animate>
  </rect>
</g><g transform="rotate(310.5882352941176 50 50)">
  <rect x="20.5" y="49.5" rx="16.52" ry="0.5" width="59" height="1" fill="#3b82f6">
    <animate attributeName="opacity" values="1;0" keyTimes="0;1" dur="0.1855287569573284s" begin="-0.021826912583215105s" repeatCount="indefinite"></animate>
  </rect>
</g><g transform="rotate(317.6470588235294 50 50)">
  <rect x="20.5" y="49.5" rx="16.52" ry="0.5" width="59" height="1" fill="#3b82f6">
    <animate attributeName="opacity" values="1;0" keyTimes="0;1" dur="0.1855287569573284s" begin="-0.01818909381934592s" repeatCount="indefinite"></animate>
  </rect>
</g><g transform="rotate(324.70588235294116 50 50)">
  <rect x="20.5" y="49.5" rx="16.52" ry="0.5" width="59" height="1" fill="#3b82f6">
    <animate attributeName="opacity" values="1;0" keyTimes="0;1" dur="0.1855287569573284s" begin="-0.014551275055476737s" repeatCount="indefinite"></animate>
  </rect>
</g><g transform="rotate(331.7647058823529 50 50)">
  <rect x="20.5" y="49.5" rx="16.52" ry="0.5" width="59" height="1" fill="#3b82f6">
    <animate attributeName="opacity" values="1;0" keyTimes="0;1" dur="0.1855287569573284s" begin="-0.010913456291607553s" repeatCount="indefinite"></animate>
  </rect>
</g><g transform="rotate(338.8235294117647 50 50)">
  <rect x="20.5" y="49.5" rx="16.52" ry="0.5" width="59" height="1" fill="#3b82f6">
    <animate attributeName="opacity" values="1;0" keyTimes="0;1" dur="0.1855287569573284s" begin="-0.007275637527738368s" repeatCount="indefinite"></animate>
  </rect>
</g><g transform="rotate(345.88235294117646 50 50)">
  <rect x="20.5" y="49.5" rx="16.52" ry="0.5" width="59" height="1" fill="#3b82f6">
    <animate attributeName="opacity" values="1;0" keyTimes="0;1" dur="0.1855287569573284s" begin="-0.003637818763869184s" repeatCount="indefinite"></animate>
  </rect>
</g><g transform="rotate(352.94117647058823 50 50)">
  <rect x="20.5" y="49.5" rx="16.52" ry="0.5" width="59" height="1" fill="#3b82f6">
    <animate attributeName="opacity" values="1;0" keyTimes="0;1" dur="0.1855287569573284s" begin="0s" repeatCount="indefinite"></animate>
  </rect>
</g>
<!-- [ldio] generated by https://loading.io/ --></svg>